<?xml version="1.0" encoding="UTF-8"?>
<!DOCTYPE svg PUBLIC "-//W3C//DTD SVG 1.1//EN" "http://www.w3.org/Graphics/SVG/1.1/DTD/svg11.dtd">
<svg xmlns="http://www.w3.org/2000/svg" version="1.1" width="668px" height="668px" style="shape-rendering:geometricPrecision; text-rendering:geometricPrecision; image-rendering:optimizeQuality; fill-rule:evenodd; clip-rule:evenodd" xmlns:xlink="http://www.w3.org/1999/xlink">
<g><path style="opacity:0.777" fill="#b0a1c6" d="M 495.5,31.5 C 495.167,31.5 494.833,31.5 494.5,31.5C 494.5,29.5 494.5,27.5 494.5,25.5C 492.076,25.1924 489.743,25.5258 487.5,26.5C 488.5,27.3333 489.5,28.1667 490.5,29C 490,29.1667 489.5,29.3333 489,29.5C 452.505,28.6401 416.005,28.3068 379.5,28.5C 379.5,28.1667 379.5,27.8333 379.5,27.5C 415.129,26.2809 450.796,26.2809 486.5,27.5C 486.36,25.8762 487.027,24.7096 488.5,24C 490.797,23.9822 493.131,24.1489 495.5,24.5C 495.5,26.8333 495.5,29.1667 495.5,31.5 Z"/></g>
<g><path style="opacity:0.72" fill="#b5abc4" d="M 301.5,29.5 C 274.833,29.5 248.167,29.5 221.5,29.5C 206.758,29.0312 192.092,29.6979 177.5,31.5C 177.5,31.1667 177.5,30.8333 177.5,30.5C 179.746,29.7904 182.08,29.2904 184.5,29C 223.669,28.1688 262.669,28.3355 301.5,29.5 Z"/></g>
<g><path style="opacity:1" fill="#8b75c2" d="M 494.5,31.5 C 494.021,67.6128 493.021,103.613 491.5,139.5C 491.247,103.166 490.914,66.8324 490.5,30.5C 487.167,30.5 483.833,30.5 480.5,30.5C 480.116,51.8784 480.782,73.2117 482.5,94.5C 480.991,129.103 480.158,163.77 480,198.5C 477.785,227.452 476.952,256.452 477.5,285.5C 476.67,295.992 476.17,306.659 476,317.5C 475.5,350.498 475.333,383.498 475.5,416.5C 475.5,443.167 475.5,469.833 475.5,496.5C 467.846,495.93 460.179,495.596 452.5,495.5C 452.737,494.209 452.404,493.209 451.5,492.5C 451.64,366.499 451.974,240.499 452.5,114.5C 452.5,96.1667 452.5,77.8333 452.5,59.5C 411.341,58.1077 370.008,57.441 328.5,57.5C 286.828,57.3681 245.162,57.7014 203.5,58.5C 202.524,183.159 202.191,307.826 202.5,432.5C 202.5,436.5 202.5,440.5 202.5,444.5C 200.749,454.275 200.083,464.275 200.5,474.5C 200.829,489.343 200.496,504.01 199.5,518.5C 192.492,518.334 185.492,518.5 178.5,519C 178,519.5 177.5,520 177,520.5C 176.667,532.5 176.333,544.5 176,556.5C 175.993,560.81 175.159,564.81 173.5,568.5C 172.957,568.44 172.624,568.107 172.5,567.5C 173.68,565.546 174.346,563.379 174.5,561C 173.478,481.507 173.478,402.007 174.5,322.5C 175.878,225.471 176.878,128.471 177.5,31.5C 192.092,29.6979 206.758,29.0312 221.5,29.5C 240.164,30.1666 258.997,30.5 278,30.5C 311.84,29.9689 345.673,29.3023 379.5,28.5C 416.005,28.3068 452.505,28.6401 489,29.5C 489.5,29.3333 490,29.1667 490.5,29C 489.5,28.1667 488.5,27.3333 487.5,26.5C 489.743,25.5258 492.076,25.1924 494.5,25.5C 494.5,27.5 494.5,29.5 494.5,31.5 Z"/></g>
<g><path style="opacity:0.725" fill="#9687b4" d="M 379.5,27.5 C 379.5,27.8333 379.5,28.1667 379.5,28.5C 345.673,29.3023 311.84,29.9689 278,30.5C 258.997,30.5 240.164,30.1666 221.5,29.5C 248.167,29.5 274.833,29.5 301.5,29.5C 327.487,28.4281 353.487,27.7615 379.5,27.5 Z"/></g>
<g><path style="opacity:1" fill="#675792" d="M 491.5,139.5 C 491.5,157.833 491.5,176.167 491.5,194.5C 490.769,250.164 490.436,305.83 490.5,361.5C 490.332,376.98 490.332,392.647 490.5,408.5C 489.467,479.336 488.467,550.336 487.5,621.5C 487.004,624.119 487.004,626.786 487.5,629.5C 488.167,629.5 488.833,629.5 489.5,629.5C 489.5,630.5 489.5,631.5 489.5,632.5C 488.5,632.5 487.5,632.5 486.5,632.5C 486.5,633.5 486.5,634.5 486.5,635.5C 479.167,635.5 471.833,635.5 464.5,635.5C 464.5,634.5 464.5,633.5 464.5,632.5C 444.002,631.861 423.668,632.528 403.5,634.5C 402.614,633.675 402.281,632.675 402.5,631.5C 384.167,631.5 365.833,631.5 347.5,631.5C 347.719,632.675 347.386,633.675 346.5,634.5C 344.15,635.091 341.983,636.091 340,637.5C 335.705,635.701 331.205,635.035 326.5,635.5C 326.5,634.5 326.5,633.5 326.5,632.5C 297.575,630.302 268.575,629.135 239.5,629C 226.781,628.317 214.114,627.15 201.5,625.5C 192.679,627.528 183.845,628.194 175,627.5C 173.921,624.937 173.421,622.271 173.5,619.5C 173.581,602.299 173.581,585.299 173.5,568.5C 175.159,564.81 175.993,560.81 176,556.5C 176.333,544.5 176.667,532.5 177,520.5C 177.5,520 178,519.5 178.5,519C 185.492,518.5 192.492,518.334 199.5,518.5C 199.5,521.5 199.5,524.5 199.5,527.5C 199.5,528.5 199.5,529.5 199.5,530.5C 199.5,536.5 199.5,542.5 199.5,548.5C 198.686,550.631 198.186,552.964 198,555.5C 197.5,571.163 197.333,586.83 197.5,602.5C 203.5,602.167 209.5,601.833 215.5,601.5C 217.5,601.5 219.5,601.5 221.5,601.5C 259.078,602.133 296.744,603.133 334.5,604.5C 373.017,605.171 411.683,606.171 450.5,607.5C 450.513,569.497 450.847,531.497 451.5,493.5C 451.5,493.167 451.5,492.833 451.5,492.5C 452.404,493.209 452.737,494.209 452.5,495.5C 460.179,495.596 467.846,495.93 475.5,496.5C 475.5,469.833 475.5,443.167 475.5,416.5C 477,373.009 477.667,329.342 477.5,285.5C 476.952,256.452 477.785,227.452 480,198.5C 480.158,163.77 480.991,129.103 482.5,94.5C 483.66,87.9678 483.493,81.3012 482,74.5C 481.333,60.8333 481.333,47.1667 482,33.5C 484.106,31.709 486.606,31.0423 489.5,31.5C 489.35,67.6771 490.016,103.677 491.5,139.5 Z"/></g>
<g><path style="opacity:1" fill="#7764a7" d="M 491.5,139.5 C 490.016,103.677 489.35,67.6771 489.5,31.5C 486.606,31.0423 484.106,31.709 482,33.5C 481.333,47.1667 481.333,60.8333 482,74.5C 483.493,81.3012 483.66,87.9678 482.5,94.5C 480.782,73.2117 480.116,51.8784 480.5,30.5C 483.833,30.5 487.167,30.5 490.5,30.5C 490.914,66.8324 491.247,103.166 491.5,139.5 Z"/></g>
<g><path style="opacity:0.443" fill="#b8b0c3" d="M 177.5,30.5 C 177.5,30.8333 177.5,31.1667 177.5,31.5C 176.878,128.471 175.878,225.471 174.5,322.5C 174.274,231.155 174.94,139.822 176.5,48.5C 176.167,44.5 175.833,40.5 175.5,36.5C 175.539,34.0478 176.206,32.0478 177.5,30.5 Z"/></g>
<g><path style="opacity:1" fill="#6d3f7f" d="M 328.5,58.5 C 369.831,59.0185 411.165,59.3518 452.5,59.5C 452.5,77.8333 452.5,96.1667 452.5,114.5C 450.73,240.662 450.063,366.995 450.5,493.5C 449.709,531.161 449.376,568.828 449.5,606.5C 411.197,604.736 372.864,604.069 334.5,604.5C 328.242,602.7 321.575,601.867 314.5,602C 283.502,601.5 252.502,601.333 221.5,601.5C 219.5,601.5 217.5,601.5 215.5,601.5C 210.36,600.512 205.026,600.179 199.5,600.5C 199.5,583.167 199.5,565.833 199.5,548.5C 199.5,542.5 199.5,536.5 199.5,530.5C 200.222,530.082 200.722,529.416 201,528.5C 201.34,552.011 201.507,575.345 201.5,598.5C 208.167,598.5 214.833,598.5 221.5,598.5C 222.851,581.017 223.518,563.35 223.5,545.5C 225.304,544.838 227.304,544.505 229.5,544.5C 235.415,545.802 241.415,546.469 247.5,546.5C 247.183,537.915 247.517,529.415 248.5,521C 240.089,520.803 231.755,520.303 223.5,519.5C 223.736,483.823 224.403,448.156 225.5,412.5C 234.017,412.826 242.35,412.493 250.5,411.5C 251.191,402.266 251.858,392.932 252.5,383.5C 259.508,383.666 266.508,383.5 273.5,383C 274.406,381.301 274.739,379.467 274.5,377.5C 275.29,376.391 275.79,375.058 276,373.5C 276.5,349.836 276.667,326.169 276.5,302.5C 267.833,302.5 259.167,302.5 250.5,302.5C 250.5,329.5 250.5,356.5 250.5,383.5C 247.5,383.5 244.5,383.5 241.5,383.5C 236.36,382.512 231.026,382.179 225.5,382.5C 225.5,346.833 225.5,311.167 225.5,275.5C 233.84,275.666 242.173,275.5 250.5,275C 251.982,266.279 252.649,257.445 252.5,248.5C 243.651,248.826 234.984,248.493 226.5,247.5C 226.242,211.489 226.576,175.489 227.5,139.5C 235.684,139.826 243.684,139.492 251.5,138.5C 252.999,130.045 253.665,121.378 253.5,112.5C 244.475,112.832 235.475,112.498 226.5,111.5C 234.672,111.002 242.839,110.668 251,110.5C 260.061,111.081 269.061,111.747 278,112.5C 277.179,94.8804 277.346,77.2138 278.5,59.5C 295.139,58.5586 311.805,58.2253 328.5,58.5 Z"/></g>
<g><path style="opacity:1" fill="#744c8f" d="M 328.5,58.5 C 328.5,58.1667 328.5,57.8333 328.5,57.5C 370.008,57.441 411.341,58.1077 452.5,59.5C 411.165,59.3518 369.831,59.0185 328.5,58.5 Z"/></g>
<g><path style="opacity:1" fill="#744c74" d="M 278.5,59.5 C 277.346,77.2138 277.179,94.8804 278,112.5C 269.061,111.747 260.061,111.081 251,110.5C 242.839,110.668 234.672,111.002 226.5,111.5C 235.475,112.498 244.475,112.832 253.5,112.5C 253.665,121.378 252.999,130.045 251.5,138.5C 243.167,138.5 234.833,138.5 226.5,138.5C 225.238,174.993 225.238,211.326 226.5,247.5C 234.984,248.493 243.651,248.826 252.5,248.5C 252.649,257.445 251.982,266.279 250.5,275C 242.173,275.5 233.84,275.666 225.5,275.5C 225.5,311.167 225.5,346.833 225.5,382.5C 231.026,382.179 236.36,382.512 241.5,383.5C 244.287,384.477 247.287,384.81 250.5,384.5C 250.5,393.5 250.5,402.5 250.5,411.5C 241.833,411.5 233.167,411.5 224.5,411.5C 222.805,447.65 222.472,483.65 223.5,519.5C 231.755,520.303 240.089,520.803 248.5,521C 247.517,529.415 247.183,537.915 247.5,546.5C 241.415,546.469 235.415,545.802 229.5,544.5C 227.304,544.505 225.304,544.838 223.5,545.5C 221.767,562.968 221.1,580.635 221.5,598.5C 214.833,598.5 208.167,598.5 201.5,598.5C 202.726,574.504 202.726,550.504 201.5,526.5C 200.817,526.863 200.15,527.196 199.5,527.5C 199.5,524.5 199.5,521.5 199.5,518.5C 200.496,504.01 200.829,489.343 200.5,474.5C 201.545,464.677 202.212,454.677 202.5,444.5C 202.5,440.5 202.5,436.5 202.5,432.5C 203.251,308.332 203.918,183.998 204.5,59.5C 229.167,59.5 253.833,59.5 278.5,59.5 Z"/></g>
<g><path style="opacity:0.521" fill="#b4acbc" d="M 494.5,31.5 C 494.833,31.5 495.167,31.5 495.5,31.5C 494.96,76.3383 493.96,121.172 492.5,166C 493.5,189.333 493.5,212.5 492.5,235.5C 492.829,221.656 492.496,207.99 491.5,194.5C 491.5,176.167 491.5,157.833 491.5,139.5C 493.021,103.613 494.021,67.6128 494.5,31.5 Z"/></g>
<g><path style="opacity:1" fill="#7f5e95" d="M 328.5,57.5 C 328.5,57.8333 328.5,58.1667 328.5,58.5C 311.805,58.2253 295.139,58.5586 278.5,59.5C 253.833,59.5 229.167,59.5 204.5,59.5C 203.918,183.998 203.251,308.332 202.5,432.5C 202.191,307.826 202.524,183.159 203.5,58.5C 245.162,57.7014 286.828,57.3681 328.5,57.5 Z"/></g>
<g><path style="opacity:1" fill="#704579" d="M 251.5,138.5 C 243.684,139.492 235.684,139.826 227.5,139.5C 226.576,175.489 226.242,211.489 226.5,247.5C 225.238,211.326 225.238,174.993 226.5,138.5C 234.833,138.5 243.167,138.5 251.5,138.5 Z"/></g>
<g><path style="opacity:0.557" fill="#aba2b7" d="M 491.5,194.5 C 492.496,207.99 492.829,221.656 492.5,235.5C 492.143,280.165 491.809,324.832 491.5,369.5C 490.527,367.052 490.194,364.385 490.5,361.5C 490.436,305.83 490.769,250.164 491.5,194.5 Z"/></g>
<g><path style="opacity:1" fill="#744c74" d="M 274.5,377.5 C 274.739,379.467 274.406,381.301 273.5,383C 266.508,383.5 259.508,383.666 252.5,383.5C 251.502,357.005 251.169,330.339 251.5,303.5C 259.5,303.5 267.5,303.5 275.5,303.5C 275.774,328.186 275.441,352.852 274.5,377.5 Z"/></g>
<g><path style="opacity:1" fill="#714679" d="M 274.5,377.5 C 275.441,352.852 275.774,328.186 275.5,303.5C 267.5,303.5 259.5,303.5 251.5,303.5C 251.169,330.339 251.502,357.005 252.5,383.5C 251.858,392.932 251.191,402.266 250.5,411.5C 250.5,402.5 250.5,393.5 250.5,384.5C 247.287,384.81 244.287,384.477 241.5,383.5C 244.5,383.5 247.5,383.5 250.5,383.5C 250.5,356.5 250.5,329.5 250.5,302.5C 259.167,302.5 267.833,302.5 276.5,302.5C 276.667,326.169 276.5,349.836 276,373.5C 275.79,375.058 275.29,376.391 274.5,377.5 Z"/></g>
<g><path style="opacity:1" fill="#775296" d="M 452.5,114.5 C 451.974,240.499 451.64,366.499 451.5,492.5C 451.5,492.833 451.5,493.167 451.5,493.5C 451.167,493.5 450.833,493.5 450.5,493.5C 450.063,366.995 450.73,240.662 452.5,114.5 Z"/></g>
<g><path style="opacity:0.494" fill="#b0a8ba" d="M 490.5,361.5 C 490.194,364.385 490.527,367.052 491.5,369.5C 491.408,377.683 491.742,385.85 492.5,394C 492.156,400.684 491.49,407.184 490.5,413.5C 490.5,411.833 490.5,410.167 490.5,408.5C 490.332,392.647 490.332,376.98 490.5,361.5 Z"/></g>
<g><path style="opacity:1" fill="#7764a7" d="M 477.5,285.5 C 477.667,329.342 477,373.009 475.5,416.5C 475.333,383.498 475.5,350.498 476,317.5C 476.17,306.659 476.67,295.992 477.5,285.5 Z"/></g>
<g><path style="opacity:0.437" fill="#bbb5c3" d="M 174.5,322.5 C 173.478,402.007 173.478,481.507 174.5,561C 174.346,563.379 173.68,565.546 172.5,567.5C 172.624,568.107 172.957,568.44 173.5,568.5C 173.581,585.299 173.581,602.299 173.5,619.5C 172.539,617.735 172.205,615.735 172.5,613.5C 172.802,598.138 172.469,582.804 171.5,567.5C 172.327,498.855 172.827,430.188 173,361.5C 173.169,348.327 173.669,335.327 174.5,322.5 Z"/></g>
<g><path style="opacity:1" fill="#704579" d="M 250.5,411.5 C 242.35,412.493 234.017,412.826 225.5,412.5C 224.403,448.156 223.736,483.823 223.5,519.5C 222.472,483.65 222.805,447.65 224.5,411.5C 233.167,411.5 241.833,411.5 250.5,411.5 Z"/></g>
<g><path style="opacity:1" fill="#8265a3" d="M 202.5,444.5 C 202.212,454.677 201.545,464.677 200.5,474.5C 200.083,464.275 200.749,454.275 202.5,444.5 Z"/></g>
<g><path style="opacity:0.555" fill="#a8a2b2" d="M 490.5,408.5 C 490.5,410.167 490.5,411.833 490.5,413.5C 490.329,427.179 490.662,440.846 491.5,454.5C 490.087,510.158 489.087,565.825 488.5,621.5C 488.167,621.5 487.833,621.5 487.5,621.5C 488.467,550.336 489.467,479.336 490.5,408.5 Z"/></g>
<g><path style="opacity:1" fill="#704579" d="M 201.5,598.5 C 201.507,575.345 201.34,552.011 201,528.5C 200.722,529.416 200.222,530.082 199.5,530.5C 199.5,529.5 199.5,528.5 199.5,527.5C 200.15,527.196 200.817,526.863 201.5,526.5C 202.726,550.504 202.726,574.504 201.5,598.5 Z"/></g>
<g><path style="opacity:1" fill="#714778" d="M 223.5,545.5 C 223.518,563.35 222.851,581.017 221.5,598.5C 221.1,580.635 221.767,562.968 223.5,545.5 Z"/></g>
<g><path style="opacity:1" fill="#6f4d7f" d="M 199.5,548.5 C 199.5,565.833 199.5,583.167 199.5,600.5C 205.026,600.179 210.36,600.512 215.5,601.5C 209.5,601.833 203.5,602.167 197.5,602.5C 197.333,586.83 197.5,571.163 198,555.5C 198.186,552.964 198.686,550.631 199.5,548.5 Z"/></g>
<g><path style="opacity:1" fill="#684f8b" d="M 221.5,601.5 C 252.502,601.333 283.502,601.5 314.5,602C 321.575,601.867 328.242,602.7 334.5,604.5C 296.744,603.133 259.078,602.133 221.5,601.5 Z"/></g>
<g><path style="opacity:1" fill="#694e8a" d="M 450.5,493.5 C 450.833,493.5 451.167,493.5 451.5,493.5C 450.847,531.497 450.513,569.497 450.5,607.5C 411.683,606.171 373.017,605.171 334.5,604.5C 372.864,604.069 411.197,604.736 449.5,606.5C 449.376,568.828 449.709,531.161 450.5,493.5 Z"/></g>
<g><path style="opacity:0.557" fill="#9994a5" d="M 487.5,621.5 C 487.833,621.5 488.167,621.5 488.5,621.5C 489.124,621.917 489.457,622.584 489.5,623.5C 488.246,625.334 487.579,627.334 487.5,629.5C 487.004,626.786 487.004,624.119 487.5,621.5 Z"/></g>
</svg>
